Coordinates
version=1
nRows=6
nColumns=36
inDegrees=yes

Units are S.I. units (second, meters, Newtons, ...)
If the header above contains a line with 'inDegrees', this indicates whether rotational values are in degrees (yes) or radians (no).

endheader
time	pelvis_tilt	pelvis_list	pelvis_rotation	pelvis_tx	pelvis_ty	pelvis_tz	hip_flexion_r	hip_adduction_r	hip_rotation_r	knee_angle_r	knee_angle_r_beta	ankle_angle_r	subtalar_angle_r	mtp_angle_r	hip_flexion_l	hip_adduction_l	hip_rotation_l	knee_angle_l	knee_angle_l_beta	ankle_angle_l	subtalar_angle_l	mtp_angle_l	lumbar_extension	lumbar_bending	lumbar_rotation	arm_flex_r	arm_add_r	arm_rot_r	elbow_flex_r	pro_sup_r	arm_flex_l	arm_add_l	arm_rot_l	elbow_flex_l	pro_sup_l
      0.34000000	      2.88729005	     -2.18912161	     -1.96716770	      0.22479045	      0.96589175	     -0.23566694	     -1.16157328	      6.63817173	      0.46306156	      6.51574140	      0.11372114	      5.57353668	    -10.43313789	     -6.56913651	     23.61746562	     -1.83228667	      2.30549037	     55.94594707	      0.97644098	     -3.73116831	    -15.25077140	     -6.56913651	     -6.32656107	      3.21234226	      2.87795754	     -2.91636972	     -7.03685954	    -18.71667931	     38.95290372	    112.40560579	     -4.50440585	     -5.36754657	     -8.18549380	     18.76828888	    107.13549499
      0.35000000	      2.80146021	     -2.07519487	     -2.37524453	      0.23585050	      0.96599218	     -0.23453979	     -2.10818155	      6.49907949	      0.66189283	      5.99786558	      0.10468250	      6.05610956	     -9.83531264	     -6.58098535	     24.32367738	     -1.83210052	      2.05043062	     53.03197845	      0.92558263	     -3.42868526	    -15.38349102	     -6.58098535	     -6.32609791	      3.04949661	      3.38939355	     -2.39033942	     -7.21768926	    -18.58528891	     39.55582433	    112.41990438	     -5.08838089	     -5.59928427	     -8.43550850	     18.65535497	    107.01788622
      0.36000000	      2.88946910	     -2.00016564	     -2.76286479	      0.24703001	      0.96605482	     -0.23356983	     -3.17191559	      6.34276723	      0.35166450	      5.64783568	      0.09857333	      7.41655923	     -8.06271969	     -6.66021867	     24.66377741	     -1.88427269	      1.72408501	     49.78277323	      0.86887330	     -3.94620207	    -16.22554028	     -6.66021867	     -6.55979740	      2.91990893	      3.83552315	     -1.80637178	     -7.42477414	    -18.26691685	     40.16823016	    112.31247264	     -5.79107924	     -5.64818801	     -9.76661436	     19.15834292	    106.56573427
      0.37000000	      2.78982182	     -1.99247479	     -3.17825051	      0.25814584	      0.96555998	     -0.23252561	     -4.07264626	      6.31192062	      0.76914396	      5.20925771	      0.09091870	      7.78395244	     -7.82348282	     -6.66981940	     25.11930508	     -2.06788607	      1.40626945	     46.43245528	      0.81039922	     -4.05347662	    -16.17871208	     -6.66981940	     -6.56241192	      2.88833832	      4.37018025	     -1.30126634	     -7.66245238	    -18.09663640	     40.75999469	    112.35017082	     -6.37183890	     -5.84135424	     -9.96493798	     19.14699257	    106.52273844
      0.38000000	      2.90649591	     -2.07428845	     -3.55619430	      0.26942176	      0.96511414	     -0.23163440	     -5.25817564	      6.34643185	      1.06656907	      4.71241229	      0.08224711	      8.42408097	     -7.27012729	     -6.70006588	     25.16621849	     -2.32528547	      1.03021155	     42.78580325	      0.74675314	     -5.01326201	    -17.00155269	     -6.70006588	     -6.85246372	      2.94571598	      4.90285834	     -0.82183413	     -7.95126423	    -17.77893933	     41.44827551	    112.35473815	     -6.99732625	     -5.89736804	    -10.72335590	     19.56467870	    106.40854772
      0.39000000	      2.89442246	     -2.11284462	     -4.02756839	      0.28067360	      0.96423463	     -0.23057674	     -6.23582146	      6.33609817	      1.50583500	      4.34054205	      0.07575675	      9.06461375	     -7.07141483	     -6.71477178	     25.24723728	     -2.63599495	      0.45896636	     39.03693732	      0.68132309	     -5.68961734	    -16.87596748	     -6.71477178	     -6.95437469	      2.94331184	      5.49971423	     -0.30690514	     -8.16714475	    -17.52368023	     41.97734693	    112.37471377	     -7.56780252	     -6.00193871	    -11.17180165	     19.80866144	    106.35679621
